# xmcd CD database file
#
# Track frame offsets:
#	150
#	2331
#	7779
#	26829
#	44416
#	57597
#	77884
#	97626
#	115271
#	140261
#	143536
#	161489
#	179937
#	190066
#	194192
#	194706
#
# Disc length: 2679 seconds
#
# Revision: 0
# Processed by: cddbd v1.5.1PL0 Copyright (c) Steve Scherf et al.
# Submitted via: CDex 1.50
#
DISCID=d90a7510
DTITLE=Diverse System - Diverse VS CAPCOM
DYEAR=2004
DGENRE=Game
TTITLE0=k-shi - OPENING
TTITLE1=k-shi - CHARACTER SELECT
TTITLE2=k-shi - concentration - CHUN-LI
TTITLE3=Ohka Orihara - cammy stage - CAMMY
TTITLE4=qurter - KEN STAGE (Dragon Dance Mix) - KEN
TTITLE5=k-shi - perestroika 2004 - ZANGIEF
TTITLE6=BLACKHEART - HARD FUNKY STRICKE - 3rd Strike
TTITLE7=EarBreaker - Kouryu-Vox - CHUN-LI
TTITLE8=off-beat - amazing amazon - BLANKA
TTITLE9=k-shi - BONUS STAGE
TTITLE10=Spelunker - Captive - Morrigan
TTITLE11=Tomoya - ヴァニティパラダイソ - Lei-Lei
TTITLE12=qurter - FETUS OF GOD (Another savior Mix) - Jedah
TTITLE13=k-shi - CONTINUE?
TTITLE14=k-shi - GAMEOVER
TTITLE15=k-shi - ENDING
EXTD=YEAR: 2004
EXTT0=
EXTT1=
EXTT2=
EXTT3=
EXTT4=
EXTT5=
EXTT6=
EXTT7=
EXTT8=
EXTT9=
EXTT10=
EXTT11=
EXTT12=
EXTT13=
EXTT14=
EXTT15=
PLAYORDER=
